<svg width="300" height="41" viewBox="0 0 300 41" fill="none" xmlns="http://www.w3.org/2000/svg">
<path d="M13.769 39.543C13.181 39.935 12.6257 40.131 12.103 40.131C11.3517 40.131 10.584 39.788 9.8 39.102C8.428 37.9587 7.77467 36.9623 7.84 36.113C7.90534 35.2637 8.68934 34.2837 10.192 33.173C11.4007 32.2583 12.4297 31.262 13.279 30.184C15.043 27.93 16.1863 25.1697 16.709 21.903C14.259 21.9357 11.9233 21.9847 9.702 22.05C7.51334 22.0827 5.55334 22.1317 3.822 22.197C1.33934 22.295 0.0816703 21.1027 0.0490036 18.62C0.0163371 17.3787 0.294004 16.4803 0.882004 15.925C1.47 15.337 2.401 15.0757 3.675 15.141H3.92C5.32467 15.2063 6.89267 15.239 8.624 15.239C9.08134 15.239 9.97967 15.239 11.319 15.239C12.691 15.2063 14.6183 15.1737 17.101 15.141C17.101 14.4223 17.0847 13.6873 17.052 12.936C17.0193 12.1847 16.9703 11.417 16.905 10.633C14.9123 10.9923 13.0177 11.3027 11.221 11.564L8.477 11.956C7.03967 12.1193 5.99434 11.5313 5.341 10.192C4.49167 8.428 4.27934 7.13767 4.704 6.321C5.12867 5.50433 6.28834 4.98167 8.183 4.753L9.751 4.557C12.397 4.19766 15.0267 3.75666 17.64 3.234C20.286 2.71133 22.736 2.12333 24.99 1.47C26.3293 1.078 27.5217 0.669666 28.567 0.244999C29.057 0.0816659 29.4653 -7.15256e-07 29.792 -7.15256e-07C30.576 -7.15256e-07 31.262 0.359332 31.85 1.078C33.222 2.744 33.761 4.116 33.467 5.194C33.173 6.272 32.0297 7.08867 30.037 7.644C28.2403 8.134 26.362 8.60767 24.402 9.065C24.4673 10.0777 24.5163 11.074 24.549 12.054C24.5817 13.034 24.598 13.9977 24.598 14.945C27.0153 14.847 29.302 14.749 31.458 14.651C33.614 14.553 35.5087 14.455 37.142 14.357C38.416 14.2917 39.347 14.5367 39.935 15.092C40.523 15.6473 40.8007 16.562 40.768 17.836V18.13L40.719 18.277C40.6863 19.551 40.3597 20.482 39.739 21.07C39.1183 21.658 38.171 21.9357 36.897 21.903L36.75 21.854C35.0513 21.8213 33.4833 21.805 32.046 21.805C30.6087 21.7723 29.5143 21.756 28.763 21.756C27.293 21.756 25.774 21.7723 24.206 21.805C23.618 26.2803 22.344 30.037 20.384 33.075C18.7833 35.5577 16.5783 37.7137 13.769 39.543ZM57.134 37.534C55.076 37.632 54.0307 36.6683 53.998 34.643C53.9653 32.5523 54.978 31.5233 57.036 31.556H61.152C61.1847 31.556 61.2337 31.556 61.299 31.556H61.446C61.5113 31.556 61.5603 31.556 61.593 31.556H62.083C62.1157 31.556 62.1647 31.556 62.23 31.556H62.72C62.7527 31.556 62.8017 31.556 62.867 31.556H65.905V20.727C63.945 20.7597 62.1647 20.776 60.564 20.776L60.172 20.825C58.0813 20.825 57.0197 19.7797 56.987 17.689C56.9543 15.5983 57.967 14.5693 60.025 14.602H63.994C65.072 14.6347 66.1827 14.651 67.326 14.651C67.914 14.651 68.796 14.651 69.972 14.651C71.148 14.6183 72.569 14.5857 74.235 14.553L78.4 14.504C80.5233 14.4713 81.5687 15.484 81.536 17.542C81.536 19.6653 80.4743 20.727 78.351 20.727L77.91 20.678C76.244 20.678 74.4147 20.678 72.422 20.678V31.507C74.382 31.4743 76.2277 31.4417 77.959 31.409L81.634 31.311C83.692 31.2783 84.721 32.291 84.721 34.349C84.721 36.3743 83.692 37.3707 81.634 37.338H81.389C79.7883 37.3053 77.9427 37.289 75.852 37.289C73.7613 37.289 71.589 37.3053 69.335 37.338C67.081 37.338 64.9087 37.3543 62.818 37.387C60.76 37.4197 58.947 37.4687 57.379 37.534H57.134ZM118.397 35.819C116.045 35.8517 114.869 34.692 114.869 32.34C114.869 29.988 116.029 28.8283 118.348 28.861H121.827C123.461 28.8937 125.192 28.9263 127.021 28.959C128.851 28.959 130.664 28.959 132.46 28.959H132.999C133.13 28.959 133.261 28.959 133.391 28.959H133.587C133.62 28.959 133.669 28.959 133.734 28.959H133.881C134.045 28.959 134.208 28.959 134.371 28.959H134.518C134.551 28.959 134.6 28.959 134.665 28.959H135.057C135.09 28.959 135.139 28.959 135.204 28.959H136.674C136.707 28.959 136.756 28.959 136.821 28.959H137.85C137.948 28.959 138.046 28.959 138.144 28.959H138.291C138.324 28.959 138.373 28.959 138.438 28.959H138.536C138.667 28.959 138.798 28.959 138.928 28.959H139.026C139.059 28.959 139.092 28.959 139.124 28.959H139.418C139.451 28.959 139.484 28.959 139.516 28.959H140.545C140.578 28.959 140.611 28.959 140.643 28.959H140.986V23.226C140.921 23.226 140.872 23.226 140.839 23.226H140.643C140.611 23.226 140.578 23.226 140.545 23.226H139.957C139.925 23.226 139.892 23.226 139.859 23.226H139.467C139.435 23.226 139.386 23.226 139.32 23.226H139.222C139.157 23.226 139.108 23.226 139.075 23.226H136.674C134.91 23.226 133.032 23.2423 131.039 23.275C129.079 23.275 127.136 23.2913 125.208 23.324C123.314 23.324 121.631 23.324 120.161 23.324C117.809 23.3567 116.633 22.2133 116.633 19.894C116.633 17.6073 117.793 16.4803 120.112 16.513H124.669C125.911 16.5457 127.168 16.562 128.442 16.562C129.096 16.562 130.076 16.562 131.382 16.562C132.689 16.5293 134.208 16.513 135.939 16.513C137.703 16.4803 139.19 16.464 140.398 16.464C140.431 16.464 140.447 16.464 140.447 16.464H140.496C140.496 16.464 140.513 16.464 140.545 16.464H140.643H140.692C140.725 16.464 140.741 16.464 140.741 16.464H140.79C140.79 16.464 140.807 16.464 140.839 16.464H140.937H140.986V11.123H140.937C140.905 11.123 140.872 11.123 140.839 11.123H140.594C140.562 11.123 140.529 11.123 140.496 11.123H140.251C140.219 11.123 140.186 11.123 140.153 11.123H139.908C139.876 11.123 139.843 11.123 139.81 11.123H139.712C139.68 11.123 139.647 11.123 139.614 11.123H137.654C136.217 11.123 134.6 11.1393 132.803 11.172C131.007 11.172 129.177 11.1883 127.315 11.221C125.453 11.221 123.689 11.2373 122.023 11.27L118.936 11.319C116.486 11.417 115.245 10.2247 115.212 7.742C115.18 5.292 116.388 4.08333 118.838 4.116L122.709 4.165C124.539 4.19766 126.237 4.23033 127.805 4.263C129.373 4.263 130.68 4.263 131.725 4.263C132.771 4.263 134.077 4.263 135.645 4.263C137.246 4.23033 138.977 4.19766 140.839 4.165L144.808 4.116C147.291 4.08333 148.516 5.30833 148.483 7.791V12.985C148.451 15.1737 148.434 17.444 148.434 19.796V20.482C148.434 20.58 148.434 20.678 148.434 20.776V21.315C148.434 21.413 148.434 21.4947 148.434 21.56V21.756C148.434 21.8213 148.434 21.903 148.434 22.001V22.197C148.434 22.2623 148.434 22.3277 148.434 22.393V22.638C148.434 22.7033 148.434 22.7687 148.434 22.834V23.03C148.434 23.0953 148.434 23.1607 148.434 23.226V31.948C148.467 34.4633 147.242 35.7047 144.759 35.672L140.594 35.623C138.667 35.623 136.625 35.6393 134.469 35.672C132.346 35.672 130.223 35.6883 128.099 35.721C125.976 35.721 124 35.721 122.17 35.721L118.397 35.819ZM176.021 13.965C175.139 14.9123 174.241 15.386 173.326 15.386C172.542 15.386 171.66 14.9777 170.68 14.161C169.896 13.4423 169.063 12.7237 168.181 12.005L166.074 10.388C164.833 9.44067 164.163 8.49333 164.065 7.546C164 6.566 164.506 5.50433 165.584 4.361C166.532 3.381 167.495 2.891 168.475 2.891C169.194 2.891 169.945 3.185 170.729 3.773C171.709 4.49166 172.755 5.30833 173.865 6.223L176.119 8.134C178.112 9.83267 178.128 11.7273 176.168 13.818L176.021 13.965ZM170.288 37.24C169.733 37.4033 169.259 37.485 168.867 37.485C167.659 37.485 166.646 36.8153 165.829 35.476C164.882 33.908 164.572 32.6667 164.898 31.752C165.258 30.8047 166.319 30.0533 168.083 29.498C169.586 29.0407 171.105 28.5017 172.64 27.881C175.972 26.509 179.239 24.8593 182.44 22.932C185.674 21.0047 188.745 18.865 191.652 16.513C192.861 15.533 194.004 14.5367 195.082 13.524C196.422 12.3153 197.532 11.711 198.414 11.711C199.558 11.711 200.521 12.8707 201.305 15.19C201.697 16.4313 201.452 17.493 200.57 18.375C198.872 20.1063 196.993 21.805 194.935 23.471C192.289 25.5943 189.447 27.6033 186.409 29.498C183.404 31.36 180.301 33.026 177.099 34.496C174.845 35.5413 172.575 36.456 170.288 37.24ZM223.306 39.102C222.816 39.3633 222.31 39.494 221.787 39.494C220.971 39.494 220.187 39.1347 219.435 38.416C218.031 37.044 217.394 35.917 217.524 35.035C217.655 34.1203 218.602 33.2057 220.366 32.291C222.522 31.1477 224.466 29.8737 226.197 28.469C229.268 25.9537 231.783 23.1607 233.743 20.09C235.736 16.9867 237.271 13.72 238.349 10.29C237.859 10.29 237.01 10.3063 235.801 10.339C234.593 10.339 233.155 10.3553 231.489 10.388C229.856 10.4207 228.125 10.4533 226.295 10.486C224.499 10.486 222.718 10.5187 220.954 10.584L216.838 10.731C214.388 10.829 213.114 9.62033 213.016 7.105C212.918 4.68766 214.111 3.528 216.593 3.626H217.181C218.978 3.69133 220.579 3.74033 221.983 3.773C223.421 3.773 224.515 3.773 225.266 3.773C226.704 3.773 228.353 3.75666 230.215 3.724C232.11 3.69133 234.07 3.64233 236.095 3.577C238.153 3.51166 239.966 3.44633 241.534 3.381L242.759 3.332C244.295 3.234 245.667 3.65867 246.875 4.606C247.953 5.45533 248.215 6.615 247.659 8.085C247.365 8.83633 246.957 9.76733 246.434 10.878C244.866 15.6147 242.939 19.8123 240.652 23.471C238.366 27.097 235.622 30.282 232.42 33.026C229.774 35.3127 226.736 37.338 223.306 39.102ZM274.021 13.965C273.139 14.9123 272.241 15.386 271.326 15.386C270.542 15.386 269.66 14.9777 268.68 14.161C267.896 13.4423 267.063 12.7237 266.181 12.005L264.074 10.388C262.833 9.44067 262.163 8.49333 262.065 7.546C262 6.566 262.506 5.50433 263.584 4.361C264.532 3.381 265.495 2.891 266.475 2.891C267.194 2.891 267.945 3.185 268.729 3.773C269.709 4.49166 270.755 5.30833 271.865 6.223L274.119 8.134C276.112 9.83267 276.128 11.7273 274.168 13.818L274.021 13.965ZM268.288 37.24C267.733 37.4033 267.259 37.485 266.867 37.485C265.659 37.485 264.646 36.8153 263.829 35.476C262.882 33.908 262.572 32.6667 262.898 31.752C263.258 30.8047 264.319 30.0533 266.083 29.498C267.586 29.0407 269.105 28.5017 270.64 27.881C273.972 26.509 277.239 24.8593 280.44 22.932C283.674 21.0047 286.745 18.865 289.652 16.513C290.861 15.533 292.004 14.5367 293.082 13.524C294.422 12.3153 295.532 11.711 296.414 11.711C297.558 11.711 298.521 12.8707 299.305 15.19C299.697 16.4313 299.452 17.493 298.57 18.375C296.872 20.1063 294.993 21.805 292.935 23.471C290.289 25.5943 287.447 27.6033 284.409 29.498C281.404 31.36 278.301 33.026 275.099 34.496C272.845 35.5413 270.575 36.456 268.288 37.24Z" fill="white"/>
</svg>
