<svg width="95" height="43" viewBox="0 0 95 43" fill="none" xmlns="http://www.w3.org/2000/svg">
<path d="M9.114 5.047C9.34266 4.91633 9.71833 4.86733 10.241 4.9C10.7637 4.9 11.172 4.98166 11.466 5.145C11.8907 5.40633 12.1683 5.782 12.299 6.272C12.4297 6.72933 12.495 7.61133 12.495 8.918C12.495 9.08133 12.495 9.29366 12.495 9.555C12.495 10.5023 12.544 11.0577 12.642 11.221C12.74 11.3843 13.0503 11.466 13.573 11.466C13.7363 11.466 13.8507 11.466 13.916 11.466C14.5693 11.4987 14.9613 11.5313 15.092 11.564C15.2553 11.5967 15.4677 11.711 15.729 11.907C16.1863 12.2663 16.4967 12.691 16.66 13.181C16.856 13.6383 16.8723 14.0793 16.709 14.504C16.4477 15.1247 16.0067 15.8433 15.386 16.66C15.3207 16.7253 15.239 16.8233 15.141 16.954C14.7817 17.444 14.651 17.787 14.749 17.983C14.8797 18.179 15.484 18.6363 16.562 19.355C16.856 19.551 17.101 19.698 17.297 19.796C18.5383 20.6127 19.3223 21.315 19.649 21.903C20.0083 22.491 20.0083 23.1443 19.649 23.863C19.453 24.255 19.0937 24.5653 18.571 24.794C18.0483 25.0227 17.5747 25.0717 17.15 24.941C15.8433 24.6143 14.063 23.6343 11.809 22.001C11.7437 21.9683 11.6457 21.903 11.515 21.805C11.221 21.5763 10.9433 21.56 10.682 21.756C10.4207 21.9193 9.63666 22.6707 8.33 24.01C7.87266 24.5 7.497 24.892 7.203 25.186C5.733 26.7213 4.57333 27.1787 3.724 26.558C3.10333 26.1007 2.695 25.676 2.499 25.284C2.33566 24.8593 2.33566 24.3857 2.499 23.863C2.62966 23.4383 2.793 23.1117 2.989 22.883C3.21766 22.6217 4.14866 21.6417 5.782 19.943C7.67666 18.0157 8.64033 16.954 8.673 16.758C8.70566 16.6273 8.64033 16.5457 8.477 16.513C8.379 16.513 7.87266 16.5457 6.958 16.611C4.9 16.7417 3.60966 16.807 3.087 16.807C2.597 16.7743 2.205 16.6273 1.911 16.366C0.898331 15.4513 0.816664 14.357 1.666 13.083C1.92733 12.7237 2.352 12.4623 2.94 12.299C3.528 12.1357 4.655 11.9887 6.321 11.858C7.03966 11.7927 7.43166 11.6783 7.497 11.515C7.595 11.3517 7.66033 10.6003 7.693 9.261C7.75833 7.791 7.87266 6.811 8.036 6.321C8.19933 5.831 8.55866 5.40633 9.114 5.047ZM25.039 10.094C25.3983 9.898 25.8557 9.849 26.411 9.947C26.999 10.0123 27.4237 10.192 27.685 10.486C28.0117 10.8453 28.1913 11.221 28.224 11.613C28.2893 12.005 28.3057 13.426 28.273 15.876C28.2403 18.718 28.2567 21.658 28.322 24.696C28.4527 29.5633 28.518 32.5197 28.518 33.565C28.518 34.5777 28.469 35.2473 28.371 35.574C28.273 35.9007 28.0933 36.2273 27.832 36.554C27.5707 36.8807 27.3257 37.0767 27.097 37.142C26.9337 37.2073 26.803 37.2727 26.705 37.338C26.509 37.5013 26.1497 37.5013 25.627 37.338C25.1043 37.2073 24.696 36.995 24.402 36.701C24.0753 36.3417 23.8793 35.9007 23.814 35.378C23.7487 34.8553 23.716 32.9933 23.716 29.792C23.6833 25.872 23.6343 23.128 23.569 21.56C23.4057 17.2807 23.422 14.3897 23.618 12.887C23.814 11.3843 24.2877 10.4533 25.039 10.094ZM10.045 23.422C10.437 23.2587 10.878 23.2423 11.368 23.373C12.2173 23.6343 12.74 24.01 12.936 24.5C13.132 24.99 13.2137 26.1007 13.181 27.832C13.1157 29.4653 13.1157 30.3473 13.181 30.478C13.2137 30.576 13.3443 30.6413 13.573 30.674C13.8017 30.674 14.5693 30.674 15.876 30.674C18.1627 30.674 19.4203 30.8373 19.649 31.164C19.6817 31.1967 19.7797 31.2783 19.943 31.409C20.6617 31.8663 20.923 32.6013 20.727 33.614C20.531 34.594 20.0247 35.1657 19.208 35.329C19.012 35.3617 18.865 35.427 18.767 35.525C18.669 35.5903 14.945 35.6067 7.595 35.574C4.165 35.574 2.27033 35.525 1.911 35.427C0.832998 35.133 0.244998 34.4633 0.146998 33.418C0.0489977 32.3727 0.506331 31.5723 1.519 31.017C1.74766 30.8863 2.009 30.8047 2.303 30.772C2.597 30.7393 3.51166 30.723 5.047 30.723C7.07233 30.6903 8.11766 30.6413 8.183 30.576C8.281 30.5107 8.33 29.6123 8.33 27.881C8.33 26.4763 8.36266 25.627 8.428 25.333C8.49333 25.0063 8.673 24.647 8.967 24.255C9.261 23.863 9.62033 23.5853 10.045 23.422ZM59.1652 1.568C60.0799 1.372 60.8312 1.53533 61.4192 2.058C62.0399 2.548 62.3665 3.283 62.3992 4.263C62.3992 4.88367 62.4319 5.74933 62.4972 6.86C62.6279 9.24467 62.6442 12.3317 62.5462 16.121C62.4809 19.9103 62.3502 21.805 62.1542 21.805C62.1215 21.805 62.1052 21.8377 62.1052 21.903C62.1052 22.1317 61.8765 22.3767 61.4192 22.638C60.9619 22.8993 60.5372 23.03 60.1452 23.03C58.5119 23.03 57.6952 22.0173 57.6952 19.992C57.6952 19.208 57.6462 18.816 57.5482 18.816C56.4375 18.816 55.2779 18.816 54.0692 18.816C52.4032 18.816 51.4069 18.816 51.0802 18.816C50.7862 18.7833 50.5085 18.718 50.2472 18.62C49.2999 18.1953 48.7772 17.542 48.6792 16.66C48.6139 15.7453 49.0059 15.0103 49.8552 14.455C50.2145 14.2263 51.1292 14.1283 52.5992 14.161C55.3432 14.161 56.9765 14.0467 57.4992 13.818C57.5972 13.7853 57.6625 13.4913 57.6952 12.936C57.7279 12.3807 57.6952 12.054 57.5972 11.956C57.4012 11.858 55.8822 11.76 53.0402 11.662C51.8642 11.6293 51.1455 11.5967 50.8842 11.564C50.6555 11.5313 50.4432 11.4497 50.2472 11.319C49.4305 10.7963 49.0059 10.1103 48.9732 9.261C48.9732 8.41167 49.3815 7.72567 50.1982 7.203C50.5575 6.97433 51.9459 6.84366 54.3632 6.811C56.3559 6.77833 57.3849 6.72933 57.4502 6.664C57.5155 6.59867 57.5319 6.09233 57.4992 5.145C57.4992 4.23033 57.5482 3.60966 57.6462 3.283C57.7442 2.92366 57.9892 2.548 58.3812 2.156C58.7405 1.79666 59.0019 1.60067 59.1652 1.568ZM40.0062 4.998C40.1369 4.9 40.5615 4.851 41.2802 4.851C42.0315 4.851 42.5052 4.9 42.7012 4.998C42.8972 5.096 43.0279 5.145 43.0932 5.145C43.1912 5.145 43.5505 5.30833 44.1712 5.635C44.7919 5.96167 45.2655 6.223 45.5922 6.419C46.0495 6.713 46.5559 7.17033 47.1112 7.791C47.6665 8.41166 47.9442 8.83633 47.9442 9.065C47.9442 9.13033 47.9769 9.24466 48.0422 9.408C48.2709 9.83266 48.4015 10.241 48.4342 10.633C48.4995 10.9923 48.5322 11.6783 48.5322 12.691C48.5322 13.9977 48.4995 14.798 48.4342 15.092C48.3362 15.3207 48.2709 15.582 48.2382 15.876C48.0422 16.6273 47.5849 17.5257 46.8662 18.571C46.1475 19.6163 45.5595 20.2043 45.1022 20.335C44.9389 20.3677 44.8572 20.4003 44.8572 20.433C44.8572 20.4657 44.7102 20.5637 44.4162 20.727C44.2855 20.7597 44.0079 20.874 43.5832 21.07C43.1259 21.266 42.3745 21.3313 41.3292 21.266C40.2839 21.2007 39.4509 21.0373 38.8302 20.776C37.7195 20.286 36.7232 19.5837 35.8412 18.669C34.9919 17.7543 34.4692 16.8397 34.2732 15.925C34.2405 15.6637 34.1752 15.4187 34.0772 15.19C33.9792 14.8633 33.9302 14.2263 33.9302 13.279C33.9302 12.3317 33.9955 11.6783 34.1262 11.319C34.6815 9.62033 35.5635 8.19933 36.7722 7.056C37.1969 6.59867 37.7195 6.174 38.3402 5.782C38.9935 5.35733 39.4509 5.145 39.7122 5.145C39.8102 5.145 39.9082 5.096 40.0062 4.998ZM42.5052 10.29C41.9825 10.094 41.4599 10.0613 40.9372 10.192C40.4145 10.29 40.0062 10.5187 39.7122 10.878C38.8955 11.858 38.5525 12.74 38.6832 13.524C38.8139 14.504 39.0915 15.2227 39.5162 15.68C39.9735 16.1047 40.6269 16.317 41.4762 16.317C42.0315 16.317 42.4399 16.2353 42.7012 16.072C42.9625 15.9087 43.1912 15.5657 43.3872 15.043C43.4525 14.945 43.5179 14.798 43.5832 14.602C43.6485 14.406 43.6975 14.2753 43.7302 14.21C44.0242 13.4587 44.0405 12.6747 43.7792 11.858C43.5179 11.0413 43.0932 10.5187 42.5052 10.29ZM51.9132 25.039C52.2399 25.0063 52.7625 25.0063 53.4812 25.039C54.2325 25.0717 54.7225 25.1207 54.9512 25.186C55.1799 25.284 55.3922 25.333 55.5882 25.333C55.8169 25.333 56.4049 25.5617 57.3522 26.019C57.9075 26.2803 58.4629 26.6397 59.0182 27.097C59.6715 27.6523 60.2269 28.518 60.6842 29.694C61.0109 30.4127 61.1579 31.2947 61.1252 32.34C61.1252 33.3853 60.9619 34.3327 60.6352 35.182C60.1452 36.4887 59.4755 37.534 58.6262 38.318C57.7769 39.1347 56.6662 39.8043 55.2942 40.327C53.2689 41.0783 51.1782 40.964 49.0222 39.984C46.8989 39.004 45.5432 37.5503 44.9552 35.623C44.7919 35.035 44.7102 34.1857 44.7102 33.075C44.7102 31.9317 44.7919 31.2783 44.9552 31.115C45.0205 31.0497 45.0532 30.9843 45.0532 30.919C45.0532 30.7557 45.1839 30.4127 45.4452 29.89C45.7392 29.3673 46.0332 28.8937 46.3272 28.469C46.9479 27.6197 47.7645 26.8847 48.7772 26.264C49.8225 25.6107 50.8679 25.2023 51.9132 25.039ZM55.0492 30.38C54.7879 30.282 54.3142 30.2167 53.6282 30.184C52.9749 30.1187 52.4522 30.1187 52.0602 30.184C51.2762 30.3147 50.6392 30.7067 50.1492 31.36C49.6592 31.9807 49.4142 32.6667 49.4142 33.418C49.4469 34.1693 49.7572 34.7573 50.3452 35.182C50.8025 35.476 51.4395 35.6883 52.2562 35.819C53.1055 35.917 53.7262 35.8517 54.1182 35.623C54.3142 35.525 54.4449 35.476 54.5102 35.476C54.6409 35.476 54.8695 35.2963 55.1962 34.937C55.5229 34.545 55.7679 34.1693 55.9312 33.81C56.2905 33.0587 56.3885 32.3727 56.2252 31.752C56.0619 31.0987 55.6699 30.6413 55.0492 30.38ZM80.2015 0.342997C80.3975 0.179664 80.7078 0.0816643 81.1325 0.0489981C81.5572 0.0163318 81.8512 0.0653322 82.0145 0.195999C82.1452 0.293998 82.2758 0.342997 82.4065 0.342997C83.1578 0.375663 83.5825 1.38833 83.6805 3.381C83.7458 4.49166 83.7948 5.11233 83.8275 5.243C83.8602 5.341 84.0235 5.40633 84.3175 5.439C84.6115 5.439 85.4772 5.439 86.9145 5.439C88.4498 5.47167 89.3482 5.50433 89.6095 5.537C89.9035 5.537 90.1648 5.60233 90.3935 5.733C91.0468 6.09233 91.4062 6.68033 91.4715 7.497C91.5695 8.31366 91.3082 8.95066 90.6875 9.408C90.2955 9.73466 89.9525 9.93066 89.6585 9.996C89.3972 10.0613 88.7275 10.094 87.6495 10.094C86.1468 10.1593 85.3792 10.2573 85.3465 10.388C85.3465 10.4533 85.4282 10.5513 85.5915 10.682C87.1268 11.7273 87.8782 13.279 87.8455 15.337C87.8128 17.395 87.0125 19.012 85.4445 20.188C83.9092 21.3313 81.9165 21.7233 79.4665 21.364C78.5518 21.2333 77.6535 20.9067 76.7715 20.384C75.8895 19.8287 75.3178 19.2733 75.0565 18.718C75.0238 18.5873 74.9748 18.4567 74.9095 18.326C74.8442 18.2607 74.7952 18.179 74.7625 18.081C74.7298 17.983 74.6808 17.885 74.6155 17.787C74.3542 17.3297 74.2235 16.611 74.2235 15.631C74.2235 14.2917 74.7135 12.936 75.6935 11.564C76.0528 11.1067 76.2162 10.8453 76.1835 10.78C76.1508 10.7147 75.4975 10.682 74.2235 10.682C72.9495 10.682 72.1818 10.6167 71.9205 10.486C71.1692 10.094 70.7282 9.555 70.5975 8.869C70.4995 8.15033 70.7118 7.51333 71.2345 6.958C71.7572 6.40266 72.4595 6.10867 73.3415 6.076C73.7008 6.076 74.1092 6.05967 74.5665 6.027C75.0892 5.929 75.9058 5.86366 77.0165 5.831C78.2252 5.76566 78.8622 5.70033 78.9275 5.635C78.9928 5.56966 79.0255 4.949 79.0255 3.773C78.9928 2.72766 79.0418 1.99266 79.1725 1.568C79.3358 1.11067 79.6788 0.702332 80.2015 0.342997ZM82.4065 14.21C81.9165 14.014 81.3122 13.965 80.5935 14.063C79.8748 14.161 79.4338 14.357 79.2705 14.651C78.8458 15.3043 78.8622 15.8597 79.3195 16.317C79.8095 16.7417 80.5282 16.8723 81.4755 16.709C82.3248 16.5783 82.8638 16.2027 83.0925 15.582C83.3212 14.9613 83.0925 14.504 82.4065 14.21ZM69.5195 22.246C69.9442 22.0827 73.2598 22.0827 79.4665 22.246C81.2305 22.2787 83.5825 22.2623 86.5225 22.197C88.7765 22.1317 90.2792 22.1153 91.0305 22.148C91.7818 22.1807 92.3372 22.295 92.6965 22.491C93.6112 22.9483 94.0358 23.6507 93.9705 24.598C93.9378 25.5453 93.4315 26.2477 92.4515 26.705C91.9615 26.9337 90.2955 27.0643 87.4535 27.097C85.4608 27.097 84.4318 27.1133 84.3665 27.146C84.2685 27.2113 84.2358 28.126 84.2685 29.89C84.3338 31.654 84.3338 32.6993 84.2685 33.026C84.1378 33.712 83.7785 34.2347 83.1905 34.594C82.6025 34.9207 81.9655 35.0023 81.2795 34.839C80.6262 34.643 80.1362 34.2347 79.8095 33.614C79.6788 33.32 79.5972 33.0913 79.5645 32.928C79.5645 32.732 79.5645 32.2257 79.5645 31.409C79.5972 28.959 79.4992 27.538 79.2705 27.146C79.2378 27.0153 77.6698 26.95 74.5665 26.95C72.0185 26.9173 70.4832 26.8683 69.9605 26.803C69.4378 26.705 68.9478 26.411 68.4905 25.921C68.0005 25.3657 67.8698 24.6797 68.0985 23.863C68.3272 23.0463 68.8008 22.5073 69.5195 22.246ZM72.1655 29.253C72.4268 29.1877 72.7862 29.1713 73.2435 29.204C73.7335 29.2367 74.0602 29.302 74.2235 29.4C74.8115 29.7267 75.1708 30.184 75.3015 30.772C75.4322 31.3273 75.4485 32.536 75.3505 34.398C75.2852 36.3253 75.2852 37.3543 75.3505 37.485C75.4158 37.583 75.6935 37.632 76.1835 37.632C76.7062 37.6647 78.4538 37.681 81.4265 37.681C84.6278 37.681 86.5715 37.6973 87.2575 37.73C87.9762 37.7953 88.5478 37.9587 88.9725 38.22C89.7565 38.71 90.0668 39.4123 89.9035 40.327C89.7402 41.2417 89.1685 41.9277 88.1885 42.385C87.7312 42.6137 85.1342 42.7117 80.3975 42.679C75.6608 42.6463 73.0475 42.5157 72.5575 42.287C71.7082 41.9277 71.1692 41.5193 70.9405 41.062C70.7445 40.6047 70.6138 39.69 70.5485 38.318C70.4505 34.9207 70.4995 32.6177 70.6955 31.409C70.9242 30.1677 71.4142 29.449 72.1655 29.253Z" fill="white"/>
</svg>
